<svg width="1em" height="1em" viewBox="0 0 100 101" fill="currentColor" xmlns="http://www.w3.org/2000/svg" role="img" aria-label="warning"><path fill-rule="evenodd" clip-rule="evenodd" d="M50 11.4375H49.6117C36.8205 11.4548 26.3457 12.3411 19.0516 19.6285C11.6855 26.9885 10.9375 37.5849 10.9375 50.538C10.9375 63.491 11.6855 74.0927 19.0547 81.4539C26.4228 88.8174 37.0335 89.5625 50 89.5625H50.3883C63.178 89.5469 73.6507 88.7438 80.9453 81.4539C88.3131 74.0905 89.0625 63.491 89.0625 50.538C89.0625 37.5683 88.3045 26.9599 80.9197 19.5999C73.5484 12.2575 62.9508 11.4375 50 11.4375ZM49.7775 17.6875H50.4431L50.8798 17.6889L51.2568 17.6905L51.6291 17.6927L51.9966 17.6956L52.3596 17.699L52.718 17.7031L53.0719 17.7077L53.4214 17.7131L53.7665 17.719L54.1074 17.7257L54.444 17.7329L54.7764 17.7409C54.8865 17.7437 54.996 17.7465 55.1047 17.7495L55.2905 17.7548L55.475 17.7602L55.8402 17.7719C55.961 17.7759 56.081 17.7801 56.2002 17.7844L56.3783 17.791L56.6433 17.8014L57.0787 17.8199C57.1938 17.825 57.3082 17.8303 57.4217 17.8358L57.7601 17.8526L57.9276 17.8614L58.2592 17.8797L58.5864 17.8991L58.7484 17.9091L59.0691 17.93L59.228 17.9409L59.4643 17.9576L59.8531 17.9868C60.0073 17.9988 60.1601 18.0112 60.3115 18.0241L60.6125 18.0503L60.8053 18.0678L61.1631 18.102L61.3198 18.1177L61.4935 18.1355L61.6481 18.1519L61.8711 18.1763L62.2039 18.2144C62.2975 18.2254 62.3905 18.2366 62.4831 18.248L62.7391 18.2802L62.9468 18.3074L63.1668 18.3371C63.3006 18.3556 63.4333 18.3744 63.565 18.3938L63.8065 18.4298L63.9979 18.4594C64.1174 18.4782 64.2361 18.4973 64.3541 18.5168L64.5244 18.5454L64.6367 18.5646L64.8405 18.6003L65.0186 18.6324L65.2551 18.6764L65.4321 18.7102L65.6223 18.7476L65.8108 18.7856L66.0355 18.8322L66.2305 18.8739C70.6597 19.8322 73.9264 21.4555 76.5089 24.0279C79.0841 26.5944 80.7002 29.8457 81.649 34.2745C82.0383 36.0915 82.3128 38.0414 82.497 40.323L82.521 40.6292L82.5327 40.7838L82.5551 41.0961L82.5659 41.2538L82.5868 41.5724L82.5969 41.7333C82.6163 42.0482 82.6342 42.3694 82.6508 42.6973L82.6694 43.0828C82.6784 43.2751 82.6868 43.4696 82.6949 43.6664L82.7103 44.0634L82.72 44.3316L82.7306 44.6482L82.7364 44.8309L82.7472 45.2004L82.7571 45.5754L82.7662 45.9559L82.7745 46.3421L82.7818 46.734L82.7884 47.1318L82.7967 47.7397L82.8012 48.1526L82.805 48.5718L82.8079 48.9973L82.8091 49.2124L82.8124 50.0894V50.9864L82.811 51.4281L82.8082 52.0324L82.8056 52.4282L82.8023 52.8186L82.7983 53.2036L82.7937 53.5832L82.7854 54.1428L82.7803 54.4392L82.7707 54.9261C82.768 55.0547 82.7651 55.1824 82.7621 55.3092L82.7575 55.4986C82.748 55.876 82.7373 56.2451 82.7251 56.6064L82.719 56.7863L82.6999 57.2987L82.6828 57.7101C82.6734 57.9259 82.6635 58.1389 82.653 58.3491L82.6444 58.5166L82.6357 58.683L82.6174 59.0123L82.5914 59.4453L82.5779 59.6576L82.5566 59.9737L82.5455 60.1301L82.5227 60.44C82.5149 60.5426 82.5069 60.6445 82.4988 60.7458L82.4738 61.0477L82.4557 61.2567L82.4303 61.5369L82.4047 61.8052L82.3778 62.0748L82.3479 62.3603L82.3168 62.6424C82.3063 62.7359 82.2955 62.8289 82.2846 62.9213L82.2681 63.0596C82.1728 63.8468 82.0632 64.5962 81.9379 65.3189L81.9187 65.4289C81.8865 65.612 81.8532 65.7935 81.8189 65.9735L81.8004 66.0695L81.765 66.2501L81.735 66.4001L81.7049 66.5473L81.6702 66.7129L81.626 66.919C80.6768 71.2784 79.0717 74.49 76.5271 77.0331C73.957 79.6015 70.7025 81.2121 66.2694 82.1566L66.0565 82.2013L65.7816 82.2572L65.5989 82.2931L65.4111 82.3291L65.2038 82.3677L64.9039 82.4215L64.6734 82.4613L64.5931 82.4748L64.5081 82.489L64.3595 82.5133L64.2216 82.5354L64.0665 82.5596L63.815 82.5977L63.6191 82.6264L63.372 82.6613L63.1757 82.6881L62.9832 82.7135L62.8132 82.7353L62.6756 82.7525L62.4472 82.7801L62.1881 82.8103L61.8387 82.8489L61.553 82.8787L61.2637 82.9075C61.1667 82.9169 61.0691 82.9261 60.9709 82.9351L60.6744 82.9617C60.5252 82.9747 60.3746 82.9873 60.2226 82.9995L59.9164 83.0233L59.6062 83.0461C59.5021 83.0536 59.3974 83.0608 59.2919 83.0679L59.1331 83.0784C58.8145 83.0991 58.4894 83.1184 58.1574 83.1361L57.9071 83.1491L57.6258 83.163C57.2958 83.1787 56.9589 83.1931 56.6148 83.2062L56.3479 83.216L55.8966 83.2313L55.5295 83.2425L54.9687 83.2576L54.779 83.2622L54.3954 83.2708L54.006 83.2786L53.6108 83.2855L53.2264 83.2913L52.8535 83.2962L52.4755 83.3005L52.0922 83.304L51.7036 83.307L51.3095 83.3092L50.4492 83.3124H49.5506L49.1081 83.311L48.6858 83.3092L48.2829 83.3069L47.8857 83.3038L47.494 83.3001L47.1079 83.2958L46.7271 83.2907L46.3517 83.2849L45.9815 83.2783L45.5079 83.2688L45.031 83.2576L44.4702 83.2425L44.1031 83.2313L43.7414 83.2192C43.2626 83.2025 42.7977 83.1833 42.3456 83.1616L42.0926 83.1491L41.8423 83.1361C41.4549 83.1154 41.077 83.0927 40.7078 83.0679L40.5501 83.0571L40.3934 83.0461L40.0806 83.0231L39.9257 83.0112L39.7495 82.9972L39.534 82.9795L39.1084 82.9424L38.7154 82.9055L38.4461 82.8787C38.3499 82.8689 38.2542 82.8589 38.1591 82.8487L37.9436 82.8251L37.6878 82.7961L37.5364 82.7782L37.3937 82.761L37.2628 82.7448L37.0296 82.7152L36.8611 82.693L36.6464 82.6639L36.5131 82.6453C36.4214 82.6324 36.3301 82.6192 36.2393 82.6058L36.1197 82.588L35.9902 82.5684L35.8303 82.5436L35.6294 82.5115C35.4685 82.4855 35.3089 82.4587 35.1506 82.4311L34.9634 82.398L34.7271 82.355C34.6254 82.3362 34.5243 82.317 34.4236 82.2975L34.2605 82.2656C34.0824 82.2303 33.9057 82.194 33.7302 82.1566L33.5976 82.1281C29.2322 81.1798 26.0171 79.5759 23.4726 77.033C20.9015 74.4647 19.2901 71.2146 18.3448 66.7876C17.944 64.9108 17.6656 62.8933 17.4825 60.5136C17.463 60.2604 17.4446 60.0032 17.4273 59.7415L17.4119 59.5049L17.3908 59.1591L17.3803 58.9795L17.3604 58.6163L17.3518 58.4511L17.3325 58.056L17.3199 57.7786L17.3089 57.5216L17.2958 57.1961C17.2877 56.9852 17.28 56.7716 17.2729 56.5551L17.2671 56.3753L17.2548 55.9662L17.251 55.8304L17.2437 55.5566L17.2337 55.1402L17.2248 54.7171L17.2172 54.308L17.2107 53.908L17.2052 53.5108C17.2035 53.3775 17.2019 53.2431 17.2004 53.1078L17.1983 52.9025L17.1944 52.4485L17.1916 52.0363L17.1895 51.6181L17.1882 51.1937L17.1875 50.763V50.0894L17.1888 49.6476L17.1919 48.9972L17.1948 48.5718L17.1985 48.1528L17.203 47.74L17.2083 47.3333L17.2178 46.7343L17.2251 46.3427L17.2333 45.9569L17.2423 45.5767L17.2574 45.0167L17.2687 44.6502L17.2808 44.289L17.2872 44.1103L17.3006 43.7568L17.315 43.4084L17.3314 43.0436C17.3522 42.5964 17.3756 42.1617 17.4015 41.7383L17.4115 41.5776L17.4218 41.418L17.4455 41.0667L17.4562 40.9159L17.4782 40.6186L17.4887 40.4823L17.5039 40.2917C17.5335 39.9253 17.5655 39.5675 17.6 39.2175L17.6217 39.0012L17.6516 38.7158C17.6617 38.6212 17.6721 38.5272 17.6826 38.4337C17.7094 38.1963 17.7374 37.9623 17.7667 37.7315L17.7902 37.5488L17.8246 37.2916L17.8579 37.0519C17.9043 36.7242 17.9536 36.4027 18.0057 36.0865L18.0475 35.838C18.0841 35.6237 18.1222 35.4118 18.1616 35.2019L18.1882 35.0619L18.2368 34.813L18.2767 34.6148C18.2989 34.5063 18.3214 34.3983 18.3444 34.2908C19.2893 29.8655 20.9 26.6167 23.4691 24.0497C26.0502 21.471 29.3185 19.8425 33.7515 18.8803L33.965 18.8346L34.1214 18.802L34.2325 18.7792C34.3688 18.7515 34.5059 18.7245 34.6439 18.698L34.8141 18.6657L34.9688 18.6371L35.1727 18.6003L35.4675 18.549L35.7535 18.5014L35.9004 18.4777L36.0474 18.4545L36.3142 18.4137L36.5135 18.3844L36.8835 18.3322L37.0618 18.3082L37.266 18.2815L37.3944 18.2651L37.6099 18.2385L37.7407 18.2227L38.0197 18.1903L38.1604 18.1745L38.3967 18.1488L38.5746 18.1301C38.6953 18.1176 38.8168 18.1055 38.9393 18.0936L39.1684 18.0718L39.4043 18.0502L39.6134 18.0319L39.7636 18.0191C39.864 18.0107 39.965 18.0025 40.0667 17.9944C40.3209 17.9743 40.579 17.9552 40.8414 17.9372L40.9993 17.9266L41.3183 17.906C41.8533 17.8726 42.4058 17.8434 42.9777 17.8181L43.1498 17.8106L43.3232 17.8034L43.6954 17.7888L43.8947 17.7815L44.2979 17.7678C44.5689 17.759 44.844 17.751 45.1235 17.7438L45.3105 17.7391L45.8795 17.7262L46.3628 17.7169L46.8548 17.7089L47.2547 17.7035L47.8653 17.6969L48.2797 17.6934L48.8061 17.6902L49.3419 17.6882L49.7775 17.6875ZM50.0596 62.2188L50.176 62.2193L50.3482 62.2212L50.4612 62.2233L50.5173 62.2247L50.6283 62.2282C50.6835 62.2302 50.7381 62.2325 50.7923 62.2352L50.8998 62.2413C51.7903 62.2969 52.5337 62.4788 53.092 63.0349C53.6378 63.5789 53.8216 64.3003 53.8804 65.1633L53.887 65.2697L53.8925 65.3796L53.8969 65.491L53.8988 65.5472L53.9018 65.6608L53.9039 65.7757L53.9057 65.9507L53.9063 66.1287L53.9058 66.3066L53.9047 66.4234L53.903 66.5389L53.8997 66.6813L53.8949 66.8215L53.89 66.9321L53.8871 66.9868L53.8804 67.0952L53.8724 67.2021L53.863 67.3075C53.7888 68.0752 53.5933 68.7219 53.0946 69.2203C52.5278 69.7868 51.7691 69.9616 50.859 70.0121L50.749 70.0176C50.7121 70.0192 50.675 70.0206 50.6377 70.0219L50.5249 70.0253L50.4679 70.0267L50.353 70.0288L50.1781 70.0307L50 70.0312L49.822 70.0307L49.705 70.0296L49.5322 70.0267L49.4752 70.0253L49.3624 70.0219C49.3432 70.0213 49.324 70.0206 49.3048 70.0198C49.2868 70.0191 49.2689 70.0183 49.251 70.0176L49.1411 70.0121C48.2309 69.9616 47.4723 69.7868 46.9055 69.2203C46.3722 68.6876 46.1857 67.9852 46.1233 67.1467L46.1161 67.0412L46.1101 66.9321L46.1051 66.8215L46.1031 66.7657L46.0997 66.653L46.0971 66.5389L46.0954 66.4234L46.0943 66.3066L46.0938 66.1884L46.094 66.0108L46.0948 65.895L46.0961 65.7806L46.0981 65.6675L46.101 65.5558L46.1028 65.5004L46.107 65.3907L46.1123 65.2825L46.1188 65.1756C46.1763 64.3087 46.3585 63.5841 46.9052 63.0378C47.4623 62.4812 48.2049 62.298 49.0945 62.2418L49.1998 62.2357C49.2351 62.2339 49.2707 62.2322 49.3065 62.2308L49.4186 62.2267L49.5607 62.2229L49.705 62.2204L49.881 62.2189L50.0596 62.2188ZM53.2227 34.0938C53.2227 32.3679 51.8235 30.9688 50.0977 30.9688H50C48.2741 30.9688 46.875 32.3679 46.875 34.0938V52.8438C46.875 54.5696 48.2741 55.9688 50 55.9688H50.0977C51.8235 55.9688 53.2227 54.5696 53.2227 52.8438V34.0938Z" fill="currentColor"></path></svg>