<svg width="1em" height="1em" viewBox="0 0 100 100" fill="currentColor" xmlns="http://www.w3.org/2000/svg" role="img" aria-label="tell"><path d="M50 12.5C62.4327 12.5 72.6062 13.2874 79.6826 20.3359C86.772 27.4015 87.5 37.5854 87.5 50.0361C87.5 62.471 86.7801 72.647 79.707 79.7158C72.6335 86.7845 62.4473 87.5 50 87.5C37.5524 87.5 27.3663 86.7845 20.293 79.7158C13.2186 72.6491 12.5 62.471 12.5 50.0361C12.5 37.6013 13.2186 27.4288 20.29 20.3633C27.3631 13.2969 37.5513 12.5 50 12.5ZM38.2354 32.54C37.2443 32.6233 36.3699 32.949 35.5293 33.5371C35.367 33.6507 35.2049 33.7742 35.043 33.9082L34.9521 33.9844L34.8906 34.0371L34.8457 34.0771L34.7988 34.1172L34.7373 34.1729L34.6865 34.2197C34.6523 34.2511 34.6174 34.283 34.583 34.3154L34.5205 34.375L34.4766 34.417C34.418 34.4737 34.3585 34.5327 34.2988 34.5928L34.2344 34.6582L34.1699 34.7246L34.1543 34.7412L34.0723 34.8262L34.0059 34.8965L33.9395 34.9678L33.8721 35.04L33.8047 35.1143L33.7363 35.1904L33.667 35.2676L33.5977 35.3457L33.5264 35.4258L33.4551 35.5078L33.3838 35.5908L33.3105 35.6758L33.2646 35.7295L32.8604 36.2129L32.4854 36.6455L32.4668 36.666C31.4613 37.8191 31.055 39.3957 31.1816 41.2373C31.2711 42.5374 31.6266 43.9782 32.2236 45.5088L32.2715 45.6318L32.3125 45.7324C32.4478 46.068 32.5941 46.4086 32.752 46.752C34.5949 50.7608 37.8717 55.0888 41.9766 58.833C46.0676 62.5634 50.6423 65.4034 54.7568 66.8418C54.8428 66.8718 54.9293 66.9019 55.0146 66.9307L55.208 66.9951C55.3587 67.0444 55.5094 67.0915 55.6582 67.1367L55.7852 67.1748C57.4386 67.6656 58.9715 67.9008 60.3213 67.8564C62.1443 67.7963 63.6534 67.2255 64.6768 66.0967L64.7598 66.0039L64.8555 65.8994L65.0684 65.6689L65.5791 65.125L65.6172 65.084L65.6377 65.0664L65.6758 65.0312C66.921 63.8909 67.7662 62.3501 68.0859 60.6426C68.0936 60.6016 68.0991 60.56 68.1035 60.5186L68.1094 60.459L68.1162 60.3906C68.3108 58.1441 67.1129 56.1371 64.7217 54.377C64.6295 54.3094 64.538 54.2423 64.4473 54.1777L64.3389 54.1016C62.6604 52.9207 61.2243 52.2503 59.873 52.0645C58.2947 51.8475 56.8847 52.3019 55.625 53.376L55.5801 53.415L55.5117 53.4756L55.4512 53.5303C55.171 53.7853 54.9113 54.0469 54.6699 54.3184L54.6318 54.3604L54.5254 54.4795L54.3135 54.7178L54.2979 54.7109L54.2744 54.7002L54.2256 54.6777L54.2002 54.666L54.1748 54.6533L54.123 54.6279L54.0557 54.5938L53.9727 54.5508L53.9004 54.5117L53.8262 54.4707L53.749 54.4277L53.6865 54.3916L53.6221 54.3535L53.5898 54.335L53.5566 54.3154L53.457 54.2539L53.3867 54.2109L53.3154 54.167L53.2441 54.1211L53.1709 54.0742L53.0977 54.0264L52.9854 53.9521L52.8906 53.8887L52.7949 53.8232L52.7178 53.7695L52.6191 53.7012L52.5195 53.6309L52.4395 53.5742L52.3584 53.5156L52.2354 53.4258L52.1523 53.3643L52.0684 53.3027L51.9834 53.2393L51.8984 53.1748L51.7695 53.0762L51.6387 52.9756L51.5508 52.9072L51.4619 52.8379L51.373 52.7676L51.2832 52.6953L51.1924 52.623L51.1016 52.5498L50.9639 52.4375L50.8711 52.3623L50.7783 52.2852L50.6133 52.1484L50.4951 52.0488L50.3516 51.9277L50.2549 51.8457L50.1104 51.7207L50.0127 51.6357L49.9141 51.5508L49.8154 51.4648L49.7168 51.3779L49.6172 51.29L49.5176 51.2012L49.417 51.1113L49.3164 51.0205L49.2148 50.9297L49.1133 50.8369L48.9609 50.6982L48.8604 50.6064L48.7607 50.5146L48.6621 50.4238L48.5645 50.333L48.4678 50.2422L48.3721 50.1514L48.2764 50.0615L48.1357 49.9277L48.043 49.8389L47.9512 49.75L47.8604 49.6621L47.7256 49.5303L47.6367 49.4434L47.5488 49.3574L47.4629 49.2705L47.377 49.1855L47.292 49.0996L47.209 49.0146L47.126 48.9307L47.0244 48.8262L46.9238 48.7227L46.8447 48.6396L46.7666 48.5576L46.7285 48.5166L46.6143 48.3955L46.5391 48.3154L46.4658 48.2354L46.3926 48.1562L46.3213 48.0781L46.251 48L46.1641 47.9033L46.0791 47.8076L46.0127 47.7314L45.9473 47.6562L45.8672 47.5635L45.7891 47.4717L45.7275 47.3984L45.667 47.3271L45.6084 47.2549L45.5791 47.2197L45.5215 47.1494L45.4102 47.0107L45.3838 46.9766L45.3301 46.9092L45.2783 46.8418L45.2529 46.8086L45.1592 46.6836L45.1133 46.6221L45.0684 46.5605L45.0254 46.5L44.9834 46.4414L44.9629 46.4121L44.9238 46.3555L44.9053 46.3271L44.8594 46.2588L44.8154 46.1924L44.7822 46.1416L44.751 46.0908L44.7207 46.043L44.707 46.0186L44.6748 45.9639L44.8213 45.7998L44.9336 45.6729L45.0205 45.5723C46.3922 43.9865 47.0182 42.4584 46.8291 40.75C46.6454 39.0913 45.6978 37.4212 43.9092 35.4004C42.1057 33.3738 40.2334 32.3724 38.2354 32.54ZM54.4443 37.0625C53.5814 37.0625 52.8818 37.7621 52.8818 38.625C52.8818 39.4879 53.5814 40.1875 54.4443 40.1875L54.541 40.1885C57.732 40.2406 60.3037 42.8434 60.3037 46.0469V46.0723C60.3175 46.9233 61.0119 47.6094 61.8662 47.6094C62.7287 47.6088 63.4287 46.9095 63.4287 46.0469C63.4287 41.0853 59.4058 37.063 54.4443 37.0625ZM54.4443 30.3242C53.5814 30.3242 52.8818 31.0238 52.8818 31.8867C52.8818 32.7497 53.5814 33.4492 54.4443 33.4492L54.6523 33.4512C61.5134 33.5628 67.042 39.1592 67.042 46.0469V46.0723C67.0558 46.9233 67.7502 47.6094 68.6045 47.6094C69.467 47.6088 70.167 46.9095 70.167 46.0469C70.167 37.3638 63.1273 30.3247 54.4443 30.3242Z" fill="currentColor"></path></svg>